<svg width="31" height="30" viewBox="0 0 31 30" fill="none" xmlns="http://www.w3.org/2000/svg">
<path d="M28.98 24.4072H1.83002C0.820017 24.4072 0 23.5871 0 22.5771V3.71777C0 2.70777 0.820017 1.8877 1.83002 1.8877H7.48004C7.66004 1.8877 7.81 2.03777 7.81 2.21777C7.81 2.39777 7.66004 2.54688 7.48004 2.54688H1.83002C1.18002 2.54688 0.660034 3.07777 0.660034 3.71777V22.5771C0.660034 23.2271 1.19002 23.7471 1.83002 23.7471H28.98C29.63 23.7471 30.15 23.2171 30.15 22.5771V3.71777C30.15 3.06777 29.62 2.54688 28.98 2.54688H23.45C23.27 2.54688 23.12 2.39777 23.12 2.21777C23.12 2.03777 23.27 1.8877 23.45 1.8877H28.98C29.99 1.8877 30.81 2.70777 30.81 3.71777V22.5771C30.81 23.5871 29.99 24.4072 28.98 24.4072Z" fill="#09213C"/>
<path d="M0.330017 20.0674C0.150017 20.0674 0 19.9173 0 19.7373C0 19.5573 0.150017 19.4072 0.330017 19.4072H11.96C12.14 19.4072 12.29 19.5573 12.29 19.7373C12.29 19.9173 12.14 20.0674 11.96 20.0674H0.330017Z" fill="#09213C"/>
<path d="M18.28 20.0674C18.1 20.0674 17.95 19.9173 17.95 19.7373C17.95 19.5573 18.1 19.4072 18.28 19.4072H30.49C30.67 19.4072 30.82 19.5573 30.82 19.7373C30.82 19.9173 30.67 20.0674 30.49 20.0674H18.28Z" fill="#09213C"/>
<path d="M18.24 29.8671H12.58C12.23 29.8671 11.92 29.6869 11.69 29.3769C11.37 28.9369 11.29 28.297 11.47 27.747L12.69 24.1074C12.75 23.9374 12.9401 23.8374 13.1101 23.8974C13.2801 23.9574 13.38 24.1373 13.32 24.3173L12.1001 27.957C11.9601 28.367 12.0701 28.767 12.2301 28.997C12.3001 29.097 12.42 29.2177 12.59 29.2177H18.25C18.42 29.2177 18.5401 29.097 18.6101 28.997C18.7701 28.777 18.87 28.367 18.74 27.957L17.52 24.3173C17.46 24.1473 17.5601 23.9574 17.7301 23.8974C17.9001 23.8374 18.09 23.9374 18.15 24.1074L19.37 27.747C19.55 28.297 19.47 28.9369 19.15 29.3769C18.92 29.6969 18.6 29.8671 18.26 29.8671H18.24Z" fill="#09213C"/>
<path d="M20.74 16.5068H10.08C9.30004 16.5068 8.62006 15.9775 8.42006 15.2275L6.25002 6.87695C6.12002 6.35695 6.23001 5.81746 6.55001 5.39746C6.88001 4.97746 7.37005 4.72754 7.91005 4.72754H22.9201C23.4501 4.72754 23.9501 4.96746 24.2801 5.39746C24.6101 5.81746 24.72 6.35695 24.58 6.87695L22.4101 15.2275C22.2101 15.9775 21.53 16.5068 20.75 16.5068H20.74ZM7.90005 5.39746C7.57005 5.39746 7.27003 5.54762 7.07003 5.80762C6.87003 6.06762 6.80003 6.39777 6.88003 6.71777L9.05001 15.0674C9.17001 15.5274 9.59003 15.8574 10.07 15.8574H20.7301C21.2101 15.8574 21.63 15.5374 21.75 15.0674L23.9201 6.71777C24.0001 6.39777 23.9401 6.06762 23.7301 5.80762C23.5301 5.54762 23.22 5.39746 22.9 5.39746H7.89004H7.90005Z" fill="#09213C"/>
<path d="M21.58 8.3877H9.23004C9.05004 8.3877 8.90002 8.23762 8.90002 8.05762C8.90002 7.87762 9.05004 7.72754 9.23004 7.72754H21.58C21.76 7.72754 21.91 7.87762 21.91 8.05762C21.91 8.23762 21.76 8.3877 21.58 8.3877Z" fill="#09213C"/>
<path d="M20.4 10.957H10.42C10.24 10.957 10.09 10.807 10.09 10.627C10.09 10.447 10.24 10.2969 10.42 10.2969H20.4C20.58 10.2969 20.73 10.447 20.73 10.627C20.73 10.807 20.58 10.957 20.4 10.957Z" fill="#09213C"/>
<path d="M18.56 13.5176H11.95C11.77 13.5176 11.62 13.3675 11.62 13.1875C11.62 13.0075 11.77 12.8574 11.95 12.8574H18.56C18.74 12.8574 18.89 13.0075 18.89 13.1875C18.89 13.3675 18.74 13.5176 18.56 13.5176Z" fill="#09213C"/>
<path d="M9.23007 5.3973C9.15007 5.3973 9.06003 5.36672 9.00003 5.29672C8.87003 5.16672 8.87003 4.95699 9.00003 4.82699L13.7301 0.0975C13.8601 -0.0325 14.07 -0.0325 14.2 0.0975C14.33 0.2275 14.33 0.437227 14.2 0.567227L9.47006 5.29672C9.41006 5.35672 9.32002 5.3973 9.24002 5.3973H9.23007Z" fill="#09213C"/>
<path d="M21.58 5.3973C21.5 5.3973 21.4101 5.36672 21.3501 5.29672L16.62 0.567227C16.49 0.437227 16.49 0.2275 16.62 0.0975C16.75 -0.0325 16.9601 -0.0325 17.0901 0.0975L21.82 4.82699C21.95 4.95699 21.95 5.16672 21.82 5.29672C21.76 5.35672 21.6701 5.3973 21.5901 5.3973H21.58Z" fill="#09213C"/>
</svg>
