<svg width="33" height="35" viewBox="0 0 33 35" fill="none" xmlns="http://www.w3.org/2000/svg">
<path d="M15.8469 34.0699C15.6669 34.0699 15.4769 34.03 15.3069 33.94L0.686881 26.7398C0.0768808 26.4398 -0.173117 25.7101 0.126883 25.1001L3.96691 17.3003C4.10691 17.0103 4.35692 16.7902 4.66692 16.6802C4.97692 16.5702 5.30692 16.5998 5.60692 16.7398L20.2269 23.94C20.5169 24.08 20.7369 24.3302 20.8469 24.6402C20.9569 24.9502 20.9269 25.2796 20.7869 25.5796L16.9469 33.3804C16.7369 33.8104 16.2969 34.0601 15.8469 34.0601V34.0699ZM5.06689 17.3003C5.00689 17.3003 4.94689 17.2996 4.88689 17.3296C4.74689 17.3796 4.63689 17.4799 4.56689 17.6099L0.72692 25.4097C0.59692 25.6797 0.70692 26.0102 0.97692 26.1402L15.5969 33.3404C15.8669 33.4704 16.1969 33.3604 16.3269 33.0904L20.1669 25.2896C20.2269 25.1596 20.2369 25.0097 20.1969 24.8697C20.1469 24.7297 20.0469 24.6203 19.9169 24.5503L5.29693 17.3501C5.21693 17.3101 5.13688 17.2896 5.05688 17.2896L5.06689 17.3003Z" fill="#09213C"/>
<path d="M10.4569 28.3704C9.9969 28.3704 9.54688 28.2709 9.12688 28.0609C8.40688 27.7009 7.86692 27.0906 7.60692 26.3206C7.34692 25.5606 7.39689 24.7411 7.75689 24.0111C8.11689 23.2911 8.72688 22.7505 9.49688 22.4905C10.2569 22.2305 11.0769 22.2809 11.8069 22.6409C13.2969 23.3809 13.9169 25.191 13.1769 26.681C12.8169 27.401 12.2069 27.9405 11.4369 28.2005C11.1169 28.3105 10.7869 28.3607 10.4669 28.3607L10.4569 28.3704ZM10.4669 23.0003C10.2169 23.0003 9.9569 23.0412 9.7069 23.1312C9.1169 23.3312 8.63692 23.7509 8.35692 24.3109C8.07692 24.8709 8.03693 25.5109 8.23693 26.1009C8.43693 26.6909 8.85692 27.1705 9.41692 27.4505C9.97692 27.7305 10.6169 27.7706 11.2069 27.5706C11.7969 27.3706 12.2769 26.9509 12.5569 26.3909C12.8369 25.8309 12.8769 25.1909 12.6769 24.6009C12.4769 24.0109 12.0569 23.5303 11.4969 23.2503C11.1669 23.0903 10.8169 23.0111 10.4669 23.0111V23.0003Z" fill="#09213C"/>
<path d="M4.32693 26.79C4.32693 26.79 4.31691 26.79 4.30691 26.79C4.11691 26.79 3.97697 26.6206 3.98697 26.4306C4.03697 25.4106 3.65697 24.3903 2.92697 23.6103C2.79697 23.4703 2.80693 23.2608 2.94693 23.1308C3.08693 23.0008 3.29697 23.0104 3.42697 23.1504C4.27697 24.0604 4.73697 25.2707 4.67697 26.4707C4.67697 26.6507 4.51694 26.79 4.33694 26.79H4.32693Z" fill="#09213C"/>
<path d="M17.7569 27.6499C17.6669 27.6499 17.5769 27.6096 17.5069 27.5396C16.6569 26.6296 16.1969 25.4202 16.2569 24.2202C16.2569 24.0302 16.427 23.8899 16.617 23.8999C16.807 23.8999 16.9469 24.0703 16.9369 24.2603C16.8869 25.2803 17.2669 26.2996 17.9969 27.0796C18.1269 27.2196 18.117 27.4301 17.977 27.5601C17.907 27.6201 17.8269 27.6499 17.7469 27.6499H17.7569Z" fill="#09213C"/>
<path d="M29.5269 28.6908C28.9469 28.6908 28.3869 28.4604 28.0169 28.0004L27.2169 27.0307C26.2169 25.8207 25.3169 24.5005 24.5469 23.1205L20.3969 15.641C20.0469 15.011 20.2869 14.1611 20.9469 13.7211L22.0669 12.9711C22.7269 12.5311 23.5969 12.6208 24.0569 13.1908L29.4169 19.851C30.4069 21.081 31.2869 22.4004 32.0269 23.7904L32.6269 24.9008C33.1169 25.8108 32.7669 26.9708 31.8269 27.6108L30.8369 28.2807C30.4269 28.5507 29.9769 28.6908 29.5369 28.6908H29.5269ZM22.9769 13.3705C22.7969 13.3705 22.6169 13.4204 22.4469 13.5404L21.3269 14.2904C20.9569 14.5404 20.8069 14.9907 20.9969 15.3207L25.1469 22.8012C25.8869 24.1412 26.7669 25.421 27.7369 26.601L28.5369 27.5707C28.9669 28.0907 29.8069 28.1511 30.4469 27.7211L31.4369 27.0512C32.0769 26.6212 32.3369 25.8211 32.0169 25.2211L31.4169 24.1108C30.6869 22.7608 29.8369 21.4709 28.8769 20.2709L23.5169 13.6108C23.3869 13.4508 23.1769 13.3608 22.9669 13.3608L22.9769 13.3705Z" fill="#09213C"/>
<path d="M24.5269 10.1203C24.0669 10.1203 23.6169 9.90045 23.3469 9.49045L22.2269 7.82053C22.1269 7.66053 22.1669 7.4508 22.3169 7.3508C22.4669 7.2508 22.6769 7.29065 22.7869 7.44065L23.9069 9.11057C24.1369 9.45057 24.5969 9.54077 24.9369 9.31077L26.5569 8.22092C26.7169 8.11092 26.8369 7.94022 26.8669 7.75022C26.9069 7.56022 26.8669 7.36065 26.7569 7.19065L22.5869 0.990453C22.3569 0.650453 21.8969 0.560258 21.5569 0.790258L19.9369 1.88108C19.7769 1.99108 19.6569 2.1608 19.6269 2.3508C19.5869 2.5408 19.6269 2.74038 19.7369 2.91038L19.8469 3.07053C19.8969 3.14053 19.9169 3.24053 19.8969 3.32053C19.8769 3.41053 19.8269 3.49026 19.7569 3.54026L15.2069 6.6008C15.0469 6.7008 14.8369 6.66096 14.7369 6.51096C14.6369 6.35096 14.6769 6.14026 14.8269 6.04026L19.0969 3.17014C18.9469 2.88014 18.8969 2.55069 18.9569 2.23069C19.0269 1.86069 19.2469 1.5403 19.5569 1.3303L21.1769 0.240453C21.4869 0.0304534 21.8669 -0.0495076 22.2369 0.0304924C22.6069 0.100492 22.9269 0.321078 23.1369 0.631078L27.3069 6.8303C27.5169 7.1403 27.5969 7.52084 27.5169 7.89084C27.4469 8.26084 27.2269 8.58026 26.9169 8.79026L25.2969 9.88108C25.0569 10.0411 24.7769 10.1203 24.5069 10.1203H24.5269Z" fill="#09213C"/>
<path d="M14.4569 16.8909C13.9969 16.8909 13.5469 16.671 13.2769 16.261L9.10696 10.0608C8.89696 9.75081 8.81694 9.37027 8.89694 9.00027C8.96694 8.63027 9.18691 8.31085 9.49691 8.10085L11.117 7.01101C11.767 6.57101 12.6469 6.75066 13.0869 7.40066L14.2469 9.13113C14.3469 9.29113 14.3069 9.50085 14.1569 9.60085C13.9969 9.70085 13.7869 9.66101 13.6869 9.51101L12.5269 7.78054C12.2969 7.44054 11.8369 7.35034 11.4969 7.58034L9.87692 8.67019C9.71692 8.78019 9.59692 8.95089 9.56692 9.14089C9.52692 9.33089 9.56697 9.53046 9.67697 9.70046L13.8469 15.9007C14.0769 16.2407 14.5369 16.3309 14.8769 16.1009L16.4969 15.011C16.6569 14.901 16.7769 14.7303 16.8069 14.5403C16.8469 14.3503 16.8069 14.1507 16.6969 13.9807L16.5869 13.8206C16.4869 13.6606 16.527 13.4509 16.677 13.3509L21.227 10.2903C21.377 10.1903 21.5869 10.2311 21.6969 10.3811C21.7969 10.5411 21.757 10.7509 21.607 10.8509L17.3369 13.721C17.4869 14.011 17.537 14.3404 17.477 14.6604C17.407 15.0304 17.1869 15.3508 16.8769 15.5608L15.2569 16.6507C15.0169 16.8107 14.7369 16.8909 14.4669 16.8909H14.4569Z" fill="#09213C"/>
</svg>
