<svg width="36" height="32" viewBox="0 0 36 32" fill="none" xmlns="http://www.w3.org/2000/svg">
<path d="M20.04 24.5005H15.8499C14.1199 24.5005 12.5 23.5705 11.63 22.0605L9.53995 18.4307C8.66995 16.9307 8.66995 15.0605 9.53995 13.5605L11.63 9.93066C12.5 8.43066 14.1099 7.49072 15.8499 7.49072H20.04C21.77 7.49072 23.39 8.42066 24.26 9.93066L26.3499 13.5605C27.2199 15.0605 27.2199 16.9307 26.3499 18.4307L24.26 22.0605C23.39 23.5605 21.78 24.5005 20.04 24.5005ZM15.8499 8.2207C14.3699 8.2207 12.99 9.02078 12.25 10.3008L10.1599 13.9307C9.41995 15.2107 9.41995 16.8006 10.1599 18.0806L12.25 21.7109C12.99 22.9909 14.3699 23.7905 15.8499 23.7905H20.04C21.52 23.7905 22.9 22.9909 23.64 21.7109L25.73 18.0806C26.47 16.8006 26.47 15.2107 25.73 13.9307L23.64 10.3008C22.9 9.02078 21.52 8.2207 20.04 8.2207H15.8499Z" fill="#09213C"/>
<path d="M9.25 16.3608H6.48999C6.28999 16.3608 6.13 16.2005 6.13 16.0005C6.13 15.8005 6.28999 15.6406 6.48999 15.6406H9.25C9.45 15.6406 9.60999 15.8005 9.60999 16.0005C9.60999 16.2005 9.45 16.3608 9.25 16.3608Z" fill="#09213C"/>
<path d="M3.41998 19.4209C1.52998 19.4209 0 17.8905 0 16.0005C0 14.1105 1.52998 12.5806 3.41998 12.5806C5.30998 12.5806 6.83997 14.1105 6.83997 16.0005C6.83997 17.8905 5.30998 19.4209 3.41998 19.4209ZM3.41998 13.3008C1.92998 13.3008 0.719971 14.5105 0.719971 16.0005C0.719971 17.4905 1.92998 18.7007 3.41998 18.7007C4.90998 18.7007 6.12 17.4905 6.12 16.0005C6.12 14.5105 4.90998 13.3008 3.41998 13.3008Z" fill="#09213C"/>
<path d="M12.1 26.2907C12.04 26.2907 11.98 26.2709 11.92 26.2409C11.75 26.1409 11.69 25.9207 11.79 25.7507L13.2 23.301C13.3 23.131 13.52 23.0711 13.69 23.1711C13.86 23.2711 13.92 23.4909 13.82 23.6609L12.41 26.1111C12.34 26.2311 12.22 26.2907 12.1 26.2907Z" fill="#09213C"/>
<path d="M10.56 32.0004C9.96997 32.0004 9.37996 31.8405 8.85996 31.5405C8.06996 31.0805 7.49999 30.3509 7.26999 29.4609C7.02999 28.5809 7.14996 27.6606 7.60996 26.8706C8.54996 25.2406 10.6499 24.6806 12.2799 25.6206C13.0699 26.0806 13.64 26.8106 13.87 27.7006C14.11 28.5806 13.9899 29.5005 13.5299 30.2905C13.0699 31.0805 12.34 31.6508 11.45 31.8808C11.16 31.9608 10.86 32.0004 10.56 32.0004ZM10.57 25.8808C9.63998 25.8808 8.72995 26.3609 8.22995 27.2309C7.86995 27.8509 7.76999 28.5807 7.95999 29.2807C8.14999 29.9807 8.58994 30.5609 9.21994 30.9209C9.84994 31.2809 10.57 31.3809 11.27 31.1909C11.97 31.0009 12.5499 30.5606 12.9099 29.9306C13.2699 29.3106 13.37 28.5808 13.18 27.8808C12.99 27.1808 12.55 26.6007 11.92 26.2407C11.5 25.9907 11.03 25.8808 10.57 25.8808Z" fill="#09213C"/>
<path d="M23.75 26.2907C23.63 26.2907 23.51 26.2311 23.44 26.1111L22.04 23.6809C21.94 23.5109 22 23.2911 22.17 23.1911C22.34 23.0911 22.56 23.151 22.66 23.321L24.06 25.7507C24.16 25.9207 24.1 26.1409 23.93 26.2409C23.87 26.2709 23.81 26.2907 23.75 26.2907Z" fill="#09213C"/>
<path d="M25.29 32.0004C24.99 32.0004 24.69 31.9608 24.4 31.8808C23.52 31.6408 22.78 31.0805 22.32 30.2905C21.86 29.5005 21.74 28.5806 21.98 27.7006C22.22 26.8206 22.78 26.0806 23.57 25.6206C25.2 24.6806 27.3 25.2406 28.24 26.8706C28.7 27.6606 28.82 28.5809 28.58 29.4609C28.34 30.3409 27.78 31.0805 26.99 31.5405C26.46 31.8405 25.88 32.0004 25.29 32.0004ZM23.93 26.2407C23.31 26.6007 22.86 27.1808 22.67 27.8808C22.48 28.5808 22.58 29.3106 22.94 29.9306C23.3 30.5506 23.88 31.0009 24.58 31.1909C25.28 31.3809 26.01 31.2809 26.63 30.9209C27.25 30.5609 27.7 29.9807 27.89 29.2807C28.08 28.5807 27.98 27.8509 27.62 27.2309C26.88 25.9409 25.22 25.5007 23.93 26.2407Z" fill="#09213C"/>
<path d="M29.41 16.3608H26.65C26.45 16.3608 26.29 16.2005 26.29 16.0005C26.29 15.8005 26.45 15.6406 26.65 15.6406H29.41C29.61 15.6406 29.77 15.8005 29.77 16.0005C29.77 16.2005 29.61 16.3608 29.41 16.3608Z" fill="#09213C"/>
<path d="M32.47 19.4209C30.58 19.4209 29.05 17.8905 29.05 16.0005C29.05 14.1105 30.58 12.5806 32.47 12.5806C34.36 12.5806 35.89 14.1105 35.89 16.0005C35.89 17.8905 34.36 19.4209 32.47 19.4209ZM32.47 13.3008C30.98 13.3008 29.77 14.5105 29.77 16.0005C29.77 17.4905 30.98 18.7007 32.47 18.7007C33.96 18.7007 35.17 17.4905 35.17 16.0005C35.17 14.5105 33.96 13.3008 32.47 13.3008Z" fill="#09213C"/>
<path d="M22.32 8.85068C22.26 8.85068 22.2 8.83087 22.14 8.80087C21.97 8.70087 21.91 8.48064 22.01 8.31064L23.4 5.90097C23.5 5.73097 23.72 5.6706 23.89 5.7706C24.06 5.8706 24.12 6.09083 24.02 6.26083L22.63 8.67099C22.56 8.78099 22.44 8.85068 22.32 8.85068Z" fill="#09213C"/>
<path d="M25.24 6.84088C24.66 6.84088 24.0699 6.69092 23.5399 6.38092C22.7499 5.92092 22.18 5.19084 21.95 4.30084C21.71 3.42084 21.8299 2.501 22.2899 1.711C22.7499 0.920996 23.48 0.350664 24.37 0.120664C25.25 -0.119336 26.17 0.000995815 26.96 0.460996C27.75 0.920996 28.32 1.65059 28.55 2.54059C28.79 3.42059 28.67 4.34092 28.21 5.13092C27.58 6.23092 26.43 6.84088 25.24 6.84088ZM23.89 5.77057C25.18 6.51057 26.84 6.07082 27.58 4.78082C27.94 4.16082 28.0399 3.43102 27.8499 2.73102C27.6599 2.03102 27.2199 1.45088 26.5899 1.09088C25.9699 0.730879 25.2399 0.630859 24.5399 0.820859C23.8399 1.01086 23.2599 1.45062 22.8999 2.08062C22.5399 2.70062 22.44 3.43092 22.63 4.13092C22.82 4.83092 23.26 5.41057 23.89 5.77057Z" fill="#09213C"/>
<path d="M13.63 8.81076C13.51 8.81076 13.39 8.75107 13.32 8.63107L11.97 6.29074C11.87 6.12074 11.93 5.901 12.1 5.801C12.27 5.701 12.49 5.76088 12.59 5.93088L13.94 8.27072C14.04 8.44072 13.98 8.66096 13.81 8.76096C13.75 8.79096 13.69 8.81076 13.63 8.81076Z" fill="#09213C"/>
<path d="M10.75 6.88105C10.45 6.88105 10.15 6.84093 9.85996 6.76093C8.97996 6.52093 8.23994 5.96109 7.77994 5.17109C7.31994 4.38109 7.19997 3.46075 7.43997 2.58075C7.67997 1.70075 8.23994 0.960675 9.02994 0.500675C9.81994 0.0406752 10.74 -0.0791685 11.62 0.160831C12.5 0.400831 13.24 0.960675 13.7 1.75068C14.64 3.38068 14.08 5.48109 12.45 6.42109C11.92 6.72109 11.34 6.88105 10.75 6.88105ZM10.74 0.760929C10.27 0.760929 9.80999 0.880792 9.38999 1.12079C8.76999 1.48079 8.31998 2.06093 8.12998 2.76093C7.93998 3.46093 8.03993 4.19073 8.39994 4.81073C8.75994 5.43073 9.33995 5.88099 10.0399 6.07099C10.7399 6.26099 11.4699 6.16097 12.0899 5.80097C13.3799 5.06097 13.82 3.40103 13.08 2.11103C12.72 1.49103 12.14 1.04077 11.44 0.850773C11.21 0.790773 10.97 0.760929 10.74 0.760929Z" fill="#09213C"/>
</svg>
